<svg viewBox="0 0 88 66" version="1.1" xmlns="http://www.w3.org/2000/svg" xmlns:xlink="http://www.w3.org/1999/xlink">
    <g id="Page-1" stroke="none" stroke-width="1" fill="none" fill-rule="evenodd">
        <g id="noun_716774_cc" transform="translate(44.000000, 33.000000) rotate(270.000000) translate(-44.000000, -33.000000) translate(11.000000, -11.000000)" fill-rule="nonzero" fill="#000000">
            <path d="M63.653,87.306 C63.261,87.306 62.872,87.191 62.536,86.965 L1.229,45.659 C0.677,45.287 0.346,44.665 0.346,44 C0.346,43.335 0.677,42.713 1.229,42.341 L62.536,1.036 C63.148,0.623 63.939,0.582 64.593,0.929 C65.245,1.276 65.654,1.955 65.654,2.695 L65.654,85.306 C65.654,86.045 65.246,86.724 64.593,87.072 C64.298,87.228 63.976,87.306 63.653,87.306 Z M5.926,44 L61.654,81.546 L61.654,6.454 L5.926,44 Z" id="Shape"></path>
        </g>
    </g>
</svg>
