<svg viewBox="0 0 90 54" version="1.1" xmlns="http://www.w3.org/2000/svg" xmlns:xlink="http://www.w3.org/1999/xlink">
    <g id="Page-1" stroke="none" stroke-width="1" fill="none" fill-rule="evenodd">
        <g id="Bold_vectorized">
            <path d="M29.7509766,51.1445312 L26.7724609,51.1445312 L26.1035156,53 L25.1367188,53 L27.8515625,45.890625 L28.671875,45.890625 L31.3916016,53 L30.4296875,53 L29.7509766,51.1445312 Z M27.0556641,50.3730469 L29.4726562,50.3730469 L28.2617188,47.0478516 L27.0556641,50.3730469 Z M34.6977214,50.1240234 L33.0277995,50.1240234 L33.0277995,53 L32.0854167,53 L32.0854167,45.890625 L34.4389323,45.890625 C35.2397176,45.890625 35.8557596,46.0729148 36.2870768,46.4375 C36.7183941,46.8020852 36.9340495,47.3326788 36.9340495,48.0292969 C36.9340495,48.4720074 36.8144218,48.8577458 36.5751628,49.1865234 C36.3359038,49.5153011 36.003062,49.7610669 35.5766276,49.9238281 L37.2465495,52.9414062 L37.2465495,53 L36.2406901,53 L34.6977214,50.1240234 Z M33.0277995,49.3574219 L34.4682292,49.3574219 C34.9337263,49.3574219 35.3040025,49.2369804 35.579069,48.9960938 C35.8541355,48.7552071 35.9916667,48.4329447 35.9916667,48.0292969 C35.9916667,47.5898416 35.8606458,47.2529309 35.5986003,47.0185547 C35.3365547,46.7841785 34.9581405,46.6653646 34.4633464,46.6621094 L33.0277995,46.6621094 L33.0277995,49.3574219 Z M43.2186849,50.7441406 C43.1307938,51.4960975 42.8532901,52.0763326 42.3861654,52.4848633 C41.9190406,52.893394 41.2981159,53.0976562 40.5233724,53.0976562 C39.6835245,53.0976562 39.0105169,52.7965525 38.5043294,52.1943359 C37.998142,51.5921194 37.7450521,50.7864634 37.7450521,49.7773438 L37.7450521,49.09375 C37.7450521,48.4329394 37.8630522,47.8518905 38.099056,47.3505859 C38.3350598,46.8492813 38.6695291,46.4643568 39.102474,46.1958008 C39.5354188,45.9272448 40.0367159,45.7929688 40.6063802,45.7929688 C41.3615923,45.7929688 41.967055,46.0037414 42.4227865,46.425293 C42.8785179,46.8468446 43.1438147,47.4303348 43.2186849,48.1757812 L42.2763021,48.1757812 C42.1949215,47.6093722 42.0183282,47.19922 41.7465169,46.9453125 C41.4747057,46.691405 41.0946639,46.5644531 40.6063802,46.5644531 C40.0074189,46.5644531 39.5378598,46.7858051 39.1976888,47.2285156 C38.8575178,47.6712262 38.6874349,48.3011027 38.6874349,49.1181641 L38.6874349,49.8066406 C38.6874349,50.5781289 38.8485661,51.1917295 39.1708333,51.6474609 C39.4931006,52.1031924 39.9439424,52.3310547 40.5233724,52.3310547 C41.0442083,52.3310547 41.4437812,52.2130546 41.7221029,51.9770508 C42.0004246,51.741047 42.1851558,51.3300811 42.2763021,50.7441406 L43.2186849,50.7441406 Z M49.7035156,53 L48.7611328,53 L48.7611328,49.7138672 L45.1771485,49.7138672 L45.1771485,53 L44.2396485,53 L44.2396485,45.890625 L45.1771485,45.890625 L45.1771485,48.9472656 L48.7611328,48.9472656 L48.7611328,45.890625 L49.7035156,45.890625 L49.7035156,53 Z M52.1160808,53 L51.1785808,53 L51.1785808,45.890625 L52.1160808,45.890625 L52.1160808,53 Z M58.3421224,46.6621094 L56.0569662,46.6621094 L56.0569662,53 L55.124349,53 L55.124349,46.6621094 L52.8440756,46.6621094 L52.8440756,45.890625 L58.3421224,45.890625 L58.3421224,46.6621094 Z M63.1570313,49.7138672 L60.0759766,49.7138672 L60.0759766,52.2333984 L63.6550782,52.2333984 L63.6550782,53 L59.1384766,53 L59.1384766,45.890625 L63.60625,45.890625 L63.60625,46.6621094 L60.0759766,46.6621094 L60.0759766,48.9472656 L63.1570313,48.9472656 L63.1570313,49.7138672 Z M69.7932292,50.7441406 C69.7053382,51.4960975 69.4278344,52.0763326 68.9607097,52.4848633 C68.493585,52.893394 67.8726602,53.0976562 67.0979167,53.0976562 C66.2580688,53.0976562 65.5850612,52.7965525 65.0788738,52.1943359 C64.5726863,51.5921194 64.3195964,50.7864634 64.3195964,49.7773438 L64.3195964,49.09375 C64.3195964,48.4329394 64.4375965,47.8518905 64.6736003,47.3505859 C64.9096041,46.8492813 65.2440734,46.4643568 65.6770183,46.1958008 C66.1099632,45.9272448 66.6112602,45.7929688 67.1809245,45.7929688 C67.9361366,45.7929688 68.5415993,46.0037414 68.9973308,46.425293 C69.4530622,46.8468446 69.7183591,47.4303348 69.7932292,48.1757812 L68.8508464,48.1757812 C68.7694658,47.6093722 68.5928725,47.19922 68.3210613,46.9453125 C68.04925,46.691405 67.6692082,46.5644531 67.1809245,46.5644531 C66.5819632,46.5644531 66.1124041,46.7858051 65.7722331,47.2285156 C65.4320622,47.6712262 65.2619792,48.3011027 65.2619792,49.1181641 L65.2619792,49.8066406 C65.2619792,50.5781289 65.4231104,51.1917295 65.7453777,51.6474609 C66.0676449,52.1031924 66.5184867,52.3310547 67.0979167,52.3310547 C67.6187527,52.3310547 68.0183255,52.2130546 68.2966472,51.9770508 C68.5749689,51.741047 68.7597001,51.3300811 68.8508464,50.7441406 L69.7932292,50.7441406 Z M75.5847006,46.6621094 L73.2995443,46.6621094 L73.2995443,53 L72.3669271,53 L72.3669271,46.6621094 L70.0866537,46.6621094 L70.0866537,45.890625 L75.5847006,45.890625 L75.5847006,46.6621094 Z M80.3996094,49.7138672 L77.3185548,49.7138672 L77.3185548,52.2333984 L80.8976563,52.2333984 L80.8976563,53 L76.3810548,53 L76.3810548,45.890625 L80.8488282,45.890625 L80.8488282,46.6621094 L77.3185548,46.6621094 L77.3185548,48.9472656 L80.3996094,48.9472656 L80.3996094,49.7138672 Z M83.9010417,49.8310547 C83.0970013,49.5999337 82.5118834,49.3159197 82.1456707,48.9790039 C81.7794579,48.6420882 81.5963542,48.2262395 81.5963542,47.7314453 C81.5963542,47.1715467 81.8201476,46.7084979 82.267741,46.3422852 C82.7153343,45.9760724 83.297197,45.7929688 84.0133464,45.7929688 C84.5016301,45.7929688 84.9370099,45.8873688 85.3194988,46.0761719 C85.7019877,46.2649749 85.9982087,46.525389 86.2081707,46.8574219 C86.4181326,47.1894548 86.5231121,47.5524069 86.5231121,47.9462891 L85.5807292,47.9462891 C85.5807292,47.5165994 85.4440119,47.1788749 85.170573,46.9331055 C84.8971341,46.687336 84.5113958,46.5644531 84.0133464,46.5644531 C83.5511045,46.5644531 83.1905938,46.6661774 82.9318035,46.8696289 C82.6730131,47.0730804 82.5436199,47.3554669 82.5436199,47.7167969 C82.5436199,48.0065119 82.6665028,48.2514638 82.9122722,48.4516602 C83.1580417,48.6518565 83.5763318,48.8349601 84.167155,49.0009766 C84.7579783,49.166993 85.2202133,49.3500967 85.5538738,49.550293 C85.8875343,49.7504893 86.1349277,49.9840481 86.2960613,50.2509766 C86.4571949,50.517905 86.5377605,50.8320294 86.5377605,51.1933594 C86.5377605,51.7695341 86.3131534,52.2309553 85.8639324,52.5776367 C85.4147114,52.9243181 84.8141314,53.0976562 84.0621746,53.0976562 C83.5738909,53.0976562 83.1181663,53.0040699 82.6949871,52.8168945 C82.2718079,52.6297191 81.9454765,52.373374 81.7159832,52.0478516 C81.4864898,51.7223291 81.3717449,51.3528667 81.3717449,50.9394531 L82.3141277,50.9394531 C82.3141277,51.3691428 82.4728175,51.7084948 82.7902019,51.9575195 C83.1075863,52.2065442 83.5315729,52.3310547 84.0621746,52.3310547 C84.5569687,52.3310547 84.9361967,52.2301442 85.1998699,52.0283203 C85.4635431,51.8264964 85.5953777,51.551434 85.5953777,51.203125 C85.5953777,50.854816 85.4733086,50.5854502 85.2291667,50.3950195 C84.9850249,50.2045889 84.542321,50.0166025 83.9010417,49.8310547 Z" id="ARCHITECTES" fill="#FAFAFA"></path>
            <path d="M25.5,40.5 L89.5,40.5" id="divider" stroke="#FAFAFA" stroke-linecap="square"></path>
            <path d="M32.1835938,27.8925781 L29.5703125,27.8925781 L29.5703125,35 L27.8125,35 L27.8125,27.8925781 L25.234375,27.8925781 L25.234375,26.46875 L32.1835938,26.46875 L32.1835938,27.8925781 Z M36.9888281,33.2421875 L33.9067969,33.2421875 L33.3208594,35 L31.4517187,35 L34.6275,26.46875 L36.2564062,26.46875 L39.4497656,35 L37.580625,35 L36.9888281,33.2421875 Z M34.3814062,31.8183594 L36.5142187,31.8183594 L35.4419531,28.625 L34.3814062,31.8183594 Z M39.9366406,35 L39.9366406,26.46875 L42.9249219,26.46875 C43.9600833,26.46875 44.7452317,26.6669902 45.2803906,27.0634766 C45.8155495,27.4599629 46.083125,28.0410118 46.083125,28.8066406 C46.083125,29.2246115 45.9757042,29.5927718 45.7608594,29.9111328 C45.5460145,30.2294938 45.2471894,30.4628899 44.864375,30.6113281 C45.3018772,30.7207037 45.6466003,30.9414046 45.8985547,31.2734375 C46.1505091,31.6054704 46.2764844,32.0117163 46.2764844,32.4921875 C46.2764844,33.3125041 46.0147682,33.9335916 45.4913281,34.3554688 C44.967888,34.7773459 44.2218017,34.9921875 43.2530469,35 L39.9366406,35 Z M41.6944531,31.2851562 L41.6944531,33.5878906 L43.2003125,33.5878906 C43.6143771,33.5878906 43.937616,33.4892588 44.1700391,33.2919922 C44.4024621,33.0947256 44.5186719,32.8222674 44.5186719,32.4746094 C44.5186719,31.6933555 44.114379,31.2968751 43.3057812,31.2851562 L41.6944531,31.2851562 Z M41.6944531,30.0429688 L42.9952344,30.0429688 C43.8819576,30.0273437 44.3253125,29.6738316 44.3253125,28.9824219 C44.3253125,28.5957012 44.2130089,28.3173837 43.9883984,28.1474609 C43.7637879,27.9775382 43.4092993,27.8925781 42.9249219,27.8925781 L41.6944531,27.8925781 L41.6944531,30.0429688 Z M54.2926562,30.9277344 C54.2926562,31.7675823 54.1442202,32.5039031 53.8473437,33.1367188 C53.5504673,33.7695344 53.1256668,34.2578108 52.5729297,34.6015625 C52.0201925,34.9453142 51.3864098,35.1171875 50.6715625,35.1171875 C49.9645277,35.1171875 49.3336746,34.9472673 48.7789844,34.6074219 C48.2242941,34.2675764 47.7946109,33.7822297 47.4899219,33.1513672 C47.1852328,32.5205047 47.0309375,31.794926 47.0270312,30.9746094 L47.0270312,30.5527344 C47.0270312,29.7128864 47.1783969,28.973636 47.4811328,28.3349609 C47.7838687,27.6962859 48.2115988,27.2060564 48.7643359,26.8642578 C49.3170731,26.5224592 49.9489027,26.3515625 50.6598437,26.3515625 C51.3707848,26.3515625 52.0026144,26.5224592 52.5553516,26.8642578 C53.1080887,27.2060564 53.5358188,27.6962859 53.8385547,28.3349609 C54.1412906,28.973636 54.2926562,29.7109333 54.2926562,30.546875 L54.2926562,30.9277344 Z M52.5114062,30.5410156 C52.5114062,29.6464799 52.3512516,28.9667992 52.0309375,28.5019531 C51.7106234,28.0371071 51.2535967,27.8046875 50.6598437,27.8046875 C50.069997,27.8046875 49.6149235,28.0341774 49.2946094,28.4931641 C48.9742953,28.9521507 48.8121875,29.6249956 48.8082812,30.5117188 L48.8082812,30.9277344 C48.8082812,31.7988325 48.9684359,32.474607 49.28875,32.9550781 C49.6090641,33.4355493 50.069997,33.6757812 50.6715625,33.6757812 C51.2614092,33.6757812 51.7145297,33.4443383 52.0309375,32.9814453 C52.3473453,32.5185524 52.5075,31.8437544 52.5114062,30.9570312 L52.5114062,30.5410156 Z M61.7170312,26.46875 L61.7170312,32.0878906 C61.7170312,33.021489 61.425042,33.7597629 60.8410547,34.3027344 C60.2570674,34.8457058 59.4592238,35.1171875 58.4475,35.1171875 C57.4514013,35.1171875 56.6603935,34.8535183 56.0744531,34.3261719 C55.4885127,33.7988255 55.1896875,33.0742234 55.1779687,32.1523438 L55.1779687,26.46875 L56.9357812,26.46875 L56.9357812,32.0996094 C56.9357812,32.6582059 57.069569,33.0654284 57.3371484,33.3212891 C57.6047279,33.5771497 57.9748414,33.7050781 58.4475,33.7050781 C59.4357862,33.7050781 59.9377343,33.1855521 59.9533594,32.1464844 L59.9533594,26.46875 L61.7170312,26.46875 Z M66.0066406,31.8769531 L64.60625,31.8769531 L64.60625,35 L62.8484375,35 L62.8484375,26.46875 L66.0183594,26.46875 C67.0261769,26.46875 67.8035129,26.6933571 68.3503906,27.1425781 C68.8972683,27.5917991 69.1707031,28.2265584 69.1707031,29.046875 C69.1707031,29.6289092 69.0447278,30.1142559 68.7927734,30.5029297 C68.540819,30.8916035 68.1589869,31.2011707 67.6472656,31.4316406 L69.4929687,34.9179688 L69.4929687,35 L67.60625,35 L66.0066406,31.8769531 Z M64.60625,30.453125 L66.0242187,30.453125 C66.4656272,30.453125 66.8074207,30.3408214 67.0496094,30.1162109 C67.2917981,29.8916004 67.4128906,29.5820332 67.4128906,29.1875 C67.4128906,28.7851542 67.2986339,28.4687512 67.0701172,28.2382812 C66.8416004,28.0078113 66.491018,27.8925781 66.0183594,27.8925781 L64.60625,27.8925781 L64.60625,30.453125 Z M72.0657812,35 L70.3079687,35 L70.3079687,26.46875 L72.0657812,26.46875 L72.0657812,35 Z M80.3221875,35 L78.564375,35 L75.1425,29.3867188 L75.1425,35 L73.3846875,35 L73.3846875,26.46875 L75.1425,26.46875 L78.5702344,32.09375 L78.5702344,26.46875 L80.3221875,26.46875 L80.3221875,35 Z" id="TABOURIN" fill="#FAFAFA"></path>
            <path d="M25.7617188,22 L25.7617188,13.46875 L28.3867188,13.46875 C29.1367225,13.46875 29.8076142,13.6376936 30.3994141,13.9755859 C30.9912139,14.3134783 31.4531233,14.7939422 31.7851562,15.4169922 C32.1171892,16.0400422 32.2832031,16.7480429 32.2832031,17.5410156 L32.2832031,17.9335938 C32.2832031,18.7265665 32.1201188,19.4316375 31.7939453,20.0488281 C31.4677718,20.6660187 31.0078155,21.1445296 30.4140625,21.484375 C29.8203095,21.8242204 29.1503944,21.9960937 28.4042969,22 L25.7617188,22 Z M27.5195312,14.8925781 L27.5195312,20.5878906 L28.3691406,20.5878906 C29.0566441,20.5878906 29.5820294,20.3632835 29.9453125,19.9140625 C30.3085956,19.4648415 30.4941406,18.8222698 30.5019531,17.9863281 L30.5019531,17.5351562 C30.5019531,16.6679644 30.3222674,16.0107444 29.9628906,15.5634766 C29.6035138,15.1162087 29.0781285,14.8925781 28.3867188,14.8925781 L27.5195312,14.8925781 Z M38.3833594,18.3027344 L35.0083594,18.3027344 L35.0083594,20.5878906 L38.9692969,20.5878906 L38.9692969,22 L33.2505469,22 L33.2505469,13.46875 L38.9575781,13.46875 L38.9575781,14.8925781 L35.0083594,14.8925781 L35.0083594,16.9257812 L38.3833594,16.9257812 L38.3833594,18.3027344 Z M41.4483594,20.5878906 L45.1807812,20.5878906 L45.1807812,22 L39.6905469,22 L39.6905469,13.46875 L41.4483594,13.46875 L41.4483594,20.5878906 Z M50.8063281,20.2421875 L47.7242969,20.2421875 L47.1383594,22 L45.2692187,22 L48.445,13.46875 L50.0739062,13.46875 L53.2672656,22 L51.398125,22 L50.8063281,20.2421875 Z M48.1989062,18.8183594 L50.3317187,18.8183594 L49.2594531,15.625 L48.1989062,18.8183594 Z M55.5119531,20.5878906 L59.244375,20.5878906 L59.244375,22 L53.7541406,22 L53.7541406,13.46875 L55.5119531,13.46875 L55.5119531,20.5878906 Z M64.8699219,20.2421875 L61.7878906,20.2421875 L61.2019531,22 L59.3328125,22 L62.5085937,13.46875 L64.1375,13.46875 L67.3308594,22 L65.4617187,22 L64.8699219,20.2421875 Z M62.2625,18.8183594 L64.3953125,18.8183594 L63.3230469,15.625 L62.2625,18.8183594 Z M74.7552344,22 L72.9974219,22 L69.5755469,16.3867188 L69.5755469,22 L67.8177344,22 L67.8177344,13.46875 L69.5755469,13.46875 L73.0032812,19.09375 L73.0032812,13.46875 L74.7552344,13.46875 L74.7552344,22 Z M75.9803906,22 L75.9803906,13.46875 L78.6053906,13.46875 C79.3553944,13.46875 80.0262861,13.6376936 80.6180859,13.9755859 C81.2098858,14.3134783 81.6717952,14.7939422 82.0038281,15.4169922 C82.335861,16.0400422 82.501875,16.7480429 82.501875,17.5410156 L82.501875,17.9335938 C82.501875,18.7265665 82.3387907,19.4316375 82.0126172,20.0488281 C81.6864437,20.6660187 81.2264873,21.1445296 80.6327344,21.484375 C80.0389814,21.8242204 79.3690662,21.9960937 78.6229687,22 L75.9803906,22 Z M77.7382031,14.8925781 L77.7382031,20.5878906 L78.5878125,20.5878906 C79.2753159,20.5878906 79.8007013,20.3632835 80.1639844,19.9140625 C80.5272674,19.4648415 80.7128124,18.8222698 80.720625,17.9863281 L80.720625,17.5351562 C80.720625,16.6679644 80.5409393,16.0107444 80.1815625,15.5634766 C79.8221857,15.1162087 79.2968003,14.8925781 78.6053906,14.8925781 L77.7382031,14.8925781 Z M88.6020312,18.3027344 L85.2270312,18.3027344 L85.2270312,20.5878906 L89.1879687,20.5878906 L89.1879687,22 L83.4692187,22 L83.4692187,13.46875 L89.17625,13.46875 L89.17625,14.8925781 L85.2270312,14.8925781 L85.2270312,16.9257812 L88.6020312,16.9257812 L88.6020312,18.3027344 Z" id="DELALANDE" fill="#FAFAFA"></path>
            <path d="M30.578125,7.2421875 L27.4960938,7.2421875 L26.9101562,9 L25.0410156,9 L28.2167969,0.46875 L29.8457031,0.46875 L33.0390625,9 L31.1699219,9 L30.578125,7.2421875 Z M27.9707031,5.81835938 L30.1035156,5.81835938 L29.03125,2.625 L27.9707031,5.81835938 Z M39.2446875,1.89257812 L36.6314062,1.89257812 L36.6314062,9 L34.8735937,9 L34.8735937,1.89257812 L32.2954687,1.89257812 L32.2954687,0.46875 L39.2446875,0.46875 L39.2446875,1.89257812 Z M45.0694531,5.30273438 L41.6944531,5.30273438 L41.6944531,7.58789062 L45.6553906,7.58789062 L45.6553906,9 L39.9366406,9 L39.9366406,0.46875 L45.6436719,0.46875 L45.6436719,1.89257812 L41.6944531,1.89257812 L41.6944531,3.92578125 L45.0694531,3.92578125 L45.0694531,5.30273438 Z M48.1344531,7.58789062 L51.866875,7.58789062 L51.866875,9 L46.3766406,9 L46.3766406,0.46875 L48.1344531,0.46875 L48.1344531,7.58789062 Z M54.4338281,9 L52.6760156,9 L52.6760156,0.46875 L54.4338281,0.46875 L54.4338281,9 Z M60.8855469,5.30273438 L57.5105469,5.30273438 L57.5105469,7.58789062 L61.4714844,7.58789062 L61.4714844,9 L55.7527344,9 L55.7527344,0.46875 L61.4597656,0.46875 L61.4597656,1.89257812 L57.5105469,1.89257812 L57.5105469,3.92578125 L60.8855469,3.92578125 L60.8855469,5.30273438 Z M65.3509375,5.87695312 L63.9505469,5.87695312 L63.9505469,9 L62.1927344,9 L62.1927344,0.46875 L65.3626562,0.46875 C66.3704738,0.46875 67.1478098,0.693357129 67.6946875,1.14257812 C68.2415652,1.59179912 68.515,2.2265584 68.515,3.046875 C68.515,3.62890916 68.3890247,4.11425587 68.1370703,4.50292969 C67.8851159,4.89160351 67.5032838,5.20117072 66.9915625,5.43164062 L68.8372656,8.91796875 L68.8372656,9 L66.9505469,9 L65.3509375,5.87695312 Z M63.9505469,4.453125 L65.3685156,4.453125 C65.8099241,4.453125 66.1517175,4.34082144 66.3939062,4.11621094 C66.6360949,3.89160044 66.7571875,3.58203322 66.7571875,3.1875 C66.7571875,2.78515424 66.6429308,2.46875115 66.414414,2.23828125 C66.1858973,2.00781135 65.8353148,1.89257812 65.3626562,1.89257812 L63.9505469,1.89257812 L63.9505469,4.453125 Z" id="ATELIER" fill="#FAFAFA"></path>
            <rect id="bottom_carot" fill="#FAFAFA" x="0" y="41" width="18" height="12"></rect>
            <rect id="middle_carot" fill="#FAFAFA" x="0" y="27" width="18" height="13"></rect>
            <rect id="top_carot" fill="#FAFAFA" x="0" y="0" width="18" height="26"></rect>
        </g>
    </g>
</svg>
